<svg width="30" height="30" viewBox="0 0 30 30" fill="none" xmlns="http://www.w3.org/2000/svg">
    <g clip-path="url(#clip0_205_1726)">
    <path d="M7.60735 29.8938C6.44698 29.8809 5.29751 29.6681 4.20941 29.2647C3.41484 28.971 2.69594 28.5034 2.10529 27.8962C1.4964 27.3067 1.02814 26.5876 0.735294 25.7924C0.33228 24.7043 0.119759 23.5549 0.107059 22.3947C0.0179412 20.4659 0 19.8874 0 15C0 10.1126 0.0197059 9.53618 0.106176 7.60588C0.120418 6.44611 0.333201 5.29734 0.735294 4.20941C1.02957 3.41471 1.49716 2.69553 2.10412 2.10412C2.69404 1.49577 3.41327 1.02795 4.20853 0.735294C5.29663 0.331946 6.44609 0.119126 7.60647 0.106176C9.53588 0.0179412 10.1153 0 15 0C19.8847 0 20.4638 0.0197059 22.3941 0.106176C23.5542 0.120318 24.7033 0.333102 25.7915 0.735294C26.5864 1.02833 27.3054 1.496 27.8956 2.10382C28.5036 2.69419 28.9715 3.41341 29.2647 4.20853C29.6682 5.29661 29.8811 6.44608 29.8941 7.60647C29.9824 9.53677 30.0003 10.1147 30.0003 15.0006C30.0003 19.8865 29.9824 20.4644 29.8941 22.3947C29.8801 23.5549 29.6672 24.7041 29.2647 25.7924C28.9602 26.5815 28.4939 27.2982 27.8957 27.8962C27.2975 28.4943 26.5807 28.9604 25.7915 29.2647C24.7034 29.6681 23.5539 29.8811 22.3935 29.8941C20.465 29.9824 19.8853 30.0003 14.9994 30.0003C10.1135 30.0003 9.53559 29.9832 7.60706 29.8941" fill="url(#paint0_radial_205_1726)"/>
    <path d="M7.60735 29.8938C6.44698 29.8809 5.29751 29.6681 4.20941 29.2647C3.41484 28.971 2.69594 28.5034 2.10529 27.8962C1.4964 27.3067 1.02814 26.5876 0.735294 25.7924C0.33228 24.7043 0.119759 23.5549 0.107059 22.3947C0.0179412 20.4659 0 19.8874 0 15C0 10.1126 0.0197059 9.53618 0.106176 7.60588C0.120418 6.44611 0.333201 5.29734 0.735294 4.20941C1.02957 3.41471 1.49716 2.69553 2.10412 2.10412C2.69404 1.49577 3.41327 1.02795 4.20853 0.735294C5.29663 0.331946 6.44609 0.119126 7.60647 0.106176C9.53588 0.0179412 10.1153 0 15 0C19.8847 0 20.4638 0.0197059 22.3941 0.106176C23.5542 0.120318 24.7033 0.333102 25.7915 0.735294C26.5864 1.02833 27.3054 1.496 27.8956 2.10382C28.5036 2.69419 28.9715 3.41341 29.2647 4.20853C29.6682 5.29661 29.8811 6.44608 29.8941 7.60647C29.9824 9.53677 30.0003 10.1147 30.0003 15.0006C30.0003 19.8865 29.9824 20.4644 29.8941 22.3947C29.8801 23.5549 29.6672 24.7041 29.2647 25.7924C28.9602 26.5815 28.4939 27.2982 27.8957 27.8962C27.2975 28.4943 26.5807 28.9604 25.7915 29.2647C24.7034 29.6681 23.5539 29.8811 22.3935 29.8941C20.465 29.9824 19.8853 30.0003 14.9994 30.0003C10.1135 30.0003 9.53559 29.9832 7.60706 29.8941" fill="url(#paint1_radial_205_1726)"/>
    <path d="M11.3163 15.0638C11.3164 14.3291 11.5343 13.6108 11.9426 12.9999C12.3509 12.389 12.9311 11.9129 13.61 11.6318C14.2889 11.3507 15.0359 11.2772 15.7565 11.4206C16.4771 11.564 17.139 11.9179 17.6585 12.4375C18.178 12.9572 18.5318 13.6192 18.675 14.3398C18.8183 15.0605 18.7446 15.8075 18.4633 16.4863C18.1821 17.1651 17.7058 17.7452 17.0948 18.1534C16.4838 18.5615 15.7655 18.7793 15.0307 18.7791C14.0455 18.779 13.1007 18.3875 12.4041 17.6907C11.7075 16.994 11.3163 16.0491 11.3163 15.0638ZM9.3078 15.0638C9.3078 16.1957 9.64345 17.3022 10.2723 18.2433C10.9011 19.1845 11.7949 19.918 12.8407 20.3512C13.8864 20.7843 15.0371 20.8976 16.1472 20.6768C17.2574 20.456 18.2771 19.9109 19.0775 19.1106C19.8778 18.3102 20.4229 17.2905 20.6437 16.1803C20.8645 15.0702 20.7512 13.9195 20.318 12.8738C19.8849 11.828 19.1514 10.9342 18.2102 10.3054C17.2691 9.67654 16.1626 9.3409 15.0307 9.3409C14.2792 9.34086 13.535 9.48887 12.8406 9.77646C12.1463 10.064 11.5154 10.4856 10.9839 11.017C10.4525 11.5485 10.0309 12.1794 9.74336 12.8737C9.45577 13.5681 9.30776 14.3123 9.3078 15.0638ZM19.6428 9.11414C19.6427 9.37864 19.721 9.63724 19.8679 9.85723C20.0147 10.0772 20.2235 10.2487 20.4678 10.3501C20.7122 10.4514 20.981 10.478 21.2405 10.4265C21.4999 10.375 21.7383 10.2477 21.9254 10.0608C22.1125 9.87384 22.24 9.63561 22.2917 9.37621C22.3434 9.11681 22.317 8.8479 22.2159 8.60349C22.1148 8.35907 21.9435 8.15014 21.7236 8.00309C21.5038 7.85604 21.2452 7.77749 20.9807 7.77738C20.6262 7.77753 20.2862 7.9184 20.0355 8.16904C19.7847 8.41968 19.6437 8.7596 19.6434 9.11414M10.5287 24.1359C9.82195 24.1281 9.12183 23.9988 8.45897 23.7536C7.97826 23.5683 7.54167 23.2844 7.17731 22.9202C6.81294 22.5559 6.52887 22.1195 6.34339 21.6388C6.09802 20.976 5.96869 20.2759 5.96104 19.5691C5.90692 18.3944 5.89633 18.0415 5.89633 15.0653C5.89633 12.0891 5.90809 11.7371 5.96104 10.5612C5.96961 9.85455 6.09892 9.15456 6.34339 8.49149C6.52866 8.01063 6.81264 7.57393 7.17703 7.20954C7.54141 6.84516 7.97811 6.56117 8.45897 6.3759C9.1218 6.13055 9.82194 6.00121 10.5287 5.99355C11.7034 5.93943 12.0563 5.92885 15.0313 5.92885C18.0063 5.92885 18.3596 5.94032 19.5354 5.99385C20.2421 6.00242 20.9421 6.13173 21.6052 6.3762C22.086 6.56149 22.5227 6.84547 22.8871 7.20986C23.2515 7.57424 23.5355 8.01093 23.7207 8.49178C23.9661 9.15461 24.0954 9.85476 24.1031 10.5615C24.1572 11.738 24.1678 12.0891 24.1678 15.0656C24.1678 18.0421 24.1569 18.3938 24.1031 19.5697C24.0949 20.2764 23.9655 20.9764 23.7207 21.6394C23.5353 22.1201 23.2512 22.5565 22.8868 22.9208C22.5225 23.285 22.0859 23.5688 21.6052 23.7541C20.9423 23.9995 20.2422 24.1288 19.5354 24.1365C18.3607 24.1906 18.0078 24.2012 15.0313 24.2012C12.0549 24.2012 11.7031 24.1903 10.5287 24.1365M10.4363 3.98679C9.51158 4.00497 8.59661 4.18 7.73045 4.50443C6.99001 4.79071 6.31756 5.22857 5.75622 5.78991C5.19488 6.35125 4.75702 7.0237 4.47074 7.76414C4.14635 8.63032 3.97132 9.54527 3.9531 10.47C3.8981 11.6583 3.88574 12.0383 3.88574 15.065C3.88574 18.0918 3.89839 18.4715 3.9531 19.66C3.97132 20.5848 4.14635 21.4997 4.47074 22.3659C4.75704 23.1063 5.1949 23.7788 5.75624 24.3401C6.31758 24.9014 6.99002 25.3393 7.73045 25.6256C8.59666 25.9499 9.51159 26.1249 10.4363 26.1433C11.6252 26.1974 12.0046 26.2106 15.0313 26.2106C18.0581 26.2106 18.4378 26.198 19.6263 26.1433C20.5511 26.125 21.466 25.95 22.3322 25.6256C23.0726 25.3393 23.7451 24.9014 24.3064 24.3401C24.8678 23.7788 25.3056 23.1063 25.5919 22.3659C25.9167 21.4998 26.0918 20.5848 26.1096 19.66C26.1637 18.4709 26.176 18.0918 26.176 15.065C26.176 12.0383 26.1634 11.6586 26.1096 10.47C26.0914 9.54527 25.9163 8.63031 25.5919 7.76414C25.3056 7.02384 24.8679 6.35149 24.3067 5.79017C23.7455 5.22885 23.0733 4.79091 22.3331 4.50443C21.467 4.17979 20.552 4.00475 19.6272 3.98679C18.4387 3.93238 18.059 3.91943 15.0328 3.91943C12.0066 3.91943 11.626 3.93208 10.4369 3.98679" fill="white"/>
    </g>
    <defs>
    <radialGradient id="paint0_radial_205_1726" cx="0" cy="0" r="1" gradientUnits="userSpaceOnUse" gradientTransform="translate(1.94147 29.3429) scale(38.0888 38.0888)">
    <stop offset="0.09" stop-color="#FACA21"/>
    <stop offset="0.78" stop-color="#D82D7E"/>
    </radialGradient>
    <radialGradient id="paint1_radial_205_1726" cx="0" cy="0" r="1" gradientUnits="userSpaceOnUse" gradientTransform="translate(20.78 28.3794) scale(33.5185 33.5185)">
    <stop offset="0.64" stop-color="#8C3AAA" stop-opacity="0"/>
    <stop offset="1" stop-color="#8C3AAA"/>
    </radialGradient>
    <clipPath id="clip0_205_1726">
    <rect width="30" height="30" fill="white"/>
    </clipPath>
    </defs>
</svg>
